<svg width="20" height="22" viewBox="0 0 20 22" fill="none" xmlns="http://www.w3.org/2000/svg">
<g clip-path="url(#clip0_3001_19302)">
<path d="M13.59 11.8785V15.9485C13.59 16.3085 13.55 16.6485 13.46 16.9585C13.09 18.4285 11.87 19.3485 10.19 19.3485H7.47L4.45 21.3585C4.34876 21.4278 4.23046 21.468 4.10796 21.4748C3.98547 21.4816 3.86346 21.4546 3.75521 21.3969C3.64695 21.3391 3.5566 21.2528 3.49398 21.1473C3.43135 21.0418 3.39885 20.9212 3.4 20.7985V19.3485C2.38 19.3485 1.53 19.0085 0.94 18.4185C0.34 17.8185 0 16.9685 0 15.9485V11.8785C0 9.97852 1.18 8.66852 3 8.49852C3.13 8.48852 3.26 8.47852 3.4 8.47852H10.19C12.23 8.47852 13.59 9.83852 13.59 11.8785Z" fill="white"/>
<path d="M15.75 15.0785C17.02 15.0785 18.09 14.6585 18.83 13.9085C19.58 13.1685 20 12.0985 20 10.8285V5.72852C20 3.37852 18.1 1.47852 15.75 1.47852H7.25C4.9 1.47852 3 3.37852 3 5.72852V6.47852C3 6.75852 3.22 6.97852 3.5 6.97852H10.19C12.9 6.97852 15.09 9.16852 15.09 11.8785V14.5785C15.09 14.8585 15.31 15.0785 15.59 15.0785H15.75Z" fill="white"/>
</g>
<defs>
<clipPath id="clip0_3001_19302">
<rect width="20" height="21" fill="white" transform="translate(0 0.5)"/>
</clipPath>
</defs>
</svg>
