<svg width="32" height="32" viewBox="0 0 32 32" fill="none" xmlns="http://www.w3.org/2000/svg">
<path d="M10.3318 3.33301C10.3318 3.06779 10.2265 2.81344 10.0389 2.6259C9.85141 2.43836 9.59706 2.33301 9.33184 2.33301C9.06662 2.33301 8.81227 2.43836 8.62473 2.6259C8.4372 2.81344 8.33184 3.06779 8.33184 3.33301V5.43967C6.41184 5.59301 5.15317 5.96901 4.22784 6.89567C3.30117 7.82101 2.92517 9.08101 2.77051 10.9997H29.2265C29.0718 9.07967 28.6958 7.82101 27.7692 6.89567C26.8438 5.96901 25.5838 5.59301 23.6652 5.43834V3.33301C23.6652 3.06779 23.5598 2.81344 23.3723 2.6259C23.1847 2.43836 22.9304 2.33301 22.6652 2.33301C22.4 2.33301 22.1456 2.43836 21.9581 2.6259C21.7705 2.81344 21.6652 3.06779 21.6652 3.33301V5.35034C20.7785 5.33301 19.7838 5.33301 18.6652 5.33301H13.3318C12.2132 5.33301 11.2185 5.33301 10.3318 5.35034V3.33301Z" fill="#008DD2"/>
<path fill-rule="evenodd" clip-rule="evenodd" d="M2.66699 16C2.66699 14.8813 2.66699 13.8867 2.68433 13H29.3163C29.3337 13.8867 29.3337 14.8813 29.3337 16V18.6667C29.3337 23.6947 29.3337 26.2093 27.771 27.7707C26.2083 29.332 23.695 29.3333 18.667 29.3333H13.3337C8.30566 29.3333 5.79099 29.3333 4.22966 27.7707C2.66833 26.208 2.66699 23.6947 2.66699 18.6667V16ZM22.667 18.6667C23.0206 18.6667 23.3598 18.5262 23.6098 18.2761C23.8598 18.0261 24.0003 17.687 24.0003 17.3333C24.0003 16.9797 23.8598 16.6406 23.6098 16.3905C23.3598 16.1405 23.0206 16 22.667 16C22.3134 16 21.9742 16.1405 21.7242 16.3905C21.4741 16.6406 21.3337 16.9797 21.3337 17.3333C21.3337 17.687 21.4741 18.0261 21.7242 18.2761C21.9742 18.5262 22.3134 18.6667 22.667 18.6667ZM22.667 24C23.0206 24 23.3598 23.8595 23.6098 23.6095C23.8598 23.3594 24.0003 23.0203 24.0003 22.6667C24.0003 22.313 23.8598 21.9739 23.6098 21.7239C23.3598 21.4738 23.0206 21.3333 22.667 21.3333C22.3134 21.3333 21.9742 21.4738 21.7242 21.7239C21.4741 21.9739 21.3337 22.313 21.3337 22.6667C21.3337 23.0203 21.4741 23.3594 21.7242 23.6095C21.9742 23.8595 22.3134 24 22.667 24ZM17.3337 17.3333C17.3337 17.687 17.1932 18.0261 16.9431 18.2761C16.6931 18.5262 16.3539 18.6667 16.0003 18.6667C15.6467 18.6667 15.3076 18.5262 15.0575 18.2761C14.8075 18.0261 14.667 17.687 14.667 17.3333C14.667 16.9797 14.8075 16.6406 15.0575 16.3905C15.3076 16.1405 15.6467 16 16.0003 16C16.3539 16 16.6931 16.1405 16.9431 16.3905C17.1932 16.6406 17.3337 16.9797 17.3337 17.3333ZM17.3337 22.6667C17.3337 23.0203 17.1932 23.3594 16.9431 23.6095C16.6931 23.8595 16.3539 24 16.0003 24C15.6467 24 15.3076 23.8595 15.0575 23.6095C14.8075 23.3594 14.667 23.0203 14.667 22.6667C14.667 22.313 14.8075 21.9739 15.0575 21.7239C15.3076 21.4738 15.6467 21.3333 16.0003 21.3333C16.3539 21.3333 16.6931 21.4738 16.9431 21.7239C17.1932 21.9739 17.3337 22.313 17.3337 22.6667ZM9.33366 18.6667C9.68728 18.6667 10.0264 18.5262 10.2765 18.2761C10.5265 18.0261 10.667 17.687 10.667 17.3333C10.667 16.9797 10.5265 16.6406 10.2765 16.3905C10.0264 16.1405 9.68728 16 9.33366 16C8.98004 16 8.6409 16.1405 8.39085 16.3905C8.1408 16.6406 8.00033 16.9797 8.00033 17.3333C8.00033 17.687 8.1408 18.0261 8.39085 18.2761C8.6409 18.5262 8.98004 18.6667 9.33366 18.6667ZM9.33366 24C9.68728 24 10.0264 23.8595 10.2765 23.6095C10.5265 23.3594 10.667 23.0203 10.667 22.6667C10.667 22.313 10.5265 21.9739 10.2765 21.7239C10.0264 21.4738 9.68728 21.3333 9.33366 21.3333C8.98004 21.3333 8.6409 21.4738 8.39085 21.7239C8.1408 21.9739 8.00033 22.313 8.00033 22.6667C8.00033 23.0203 8.1408 23.3594 8.39085 23.6095C8.6409 23.8595 8.98004 24 9.33366 24Z" fill="#008DD2"/>
</svg>
