<svg width="20" height="20" viewBox="0 0 20 20" fill="none" xmlns="http://www.w3.org/2000/svg">
<path fill-rule="evenodd" clip-rule="evenodd" d="M11.9 1.66602C12.2498 1.66611 12.5907 1.77625 12.8744 1.98086C13.1581 2.18546 13.3703 2.47414 13.4808 2.80602L13.7947 3.74935H12.0387L11.9 3.33268H8.1L7.96125 3.74935H6.2053L6.51917 2.80602C6.62975 2.47401 6.84203 2.18523 7.12592 1.98061C7.4098 1.776 7.75089 1.66593 8.10083 1.66602H11.9ZM12.1775 4.16602H7.8225H6.06667H3.33333C3.11232 4.16602 2.90036 4.25381 2.74408 4.41009C2.5878 4.56637 2.5 4.77834 2.5 4.99935C2.5 5.22036 2.5878 5.43232 2.74408 5.5886C2.90036 5.74488 3.11232 5.83268 3.33333 5.83268L3.33583 5.89102L4.05833 16.011C4.10342 16.6415 4.38569 17.2315 4.84831 17.6623C5.31092 18.0931 5.91955 18.3326 6.55167 18.3327H13.4483C14.0805 18.3326 14.6891 18.0931 15.1517 17.6623C15.6143 17.2315 15.8966 16.6415 15.9417 16.011L16.6642 5.89185L16.6667 5.83268C16.8877 5.83268 17.0996 5.74488 17.2559 5.5886C17.4122 5.43232 17.5 5.22036 17.5 4.99935C17.5 4.77834 17.4122 4.56637 17.2559 4.41009C17.0996 4.25381 16.8877 4.16602 16.6667 4.16602H13.9333H12.1775ZM14.9975 5.83268H5.0025L5.72083 15.8918C5.73579 16.102 5.82981 16.2987 5.98397 16.4424C6.13812 16.586 6.34096 16.6659 6.55167 16.666H13.4483C13.659 16.6659 13.8619 16.586 14.016 16.4424C14.1702 16.2987 14.2642 16.102 14.2792 15.8918L14.9975 5.83268Z" fill="#D64877"/>
<rect x="7.60938" y="8.33398" width="7.5" height="1.33333" rx="0.666667" transform="rotate(45 7.60938 8.33398)" fill="#D64877"/>
<rect width="7.5" height="1.33333" rx="0.666667" transform="matrix(-0.707107 0.707107 0.707107 0.707107 11.9697 8.33398)" fill="#D64877"/>
</svg>
