<svg width="20" height="21" viewBox="0 0 20 21" fill="none" xmlns="http://www.w3.org/2000/svg">
<g clip-path="url(#clip0_3001_19211)">
<path d="M13.59 11.3785V15.4485C13.59 15.8085 13.55 16.1485 13.46 16.4585C13.09 17.9285 11.87 18.8485 10.19 18.8485H7.47L4.45 20.8585C4.34876 20.9278 4.23046 20.968 4.10796 20.9748C3.98547 20.9816 3.86346 20.9546 3.75521 20.8969C3.64695 20.8391 3.5566 20.7528 3.49398 20.6473C3.43135 20.5418 3.39885 20.4212 3.4 20.2985V18.8485C2.38 18.8485 1.53 18.5085 0.94 17.9185C0.34 17.3185 0 16.4685 0 15.4485V11.3785C0 9.47852 1.18 8.16852 3 7.99852C3.13 7.98852 3.26 7.97852 3.4 7.97852H10.19C12.23 7.97852 13.59 9.33852 13.59 11.3785Z" fill="#008DD2"/>
<path d="M15.75 14.5785C17.02 14.5785 18.09 14.1585 18.83 13.4085C19.58 12.6685 20 11.5985 20 10.3285V5.22852C20 2.87852 18.1 0.978516 15.75 0.978516H7.25C4.9 0.978516 3 2.87852 3 5.22852V5.97852C3 6.25852 3.22 6.47852 3.5 6.47852H10.19C12.9 6.47852 15.09 8.66852 15.09 11.3785V14.0785C15.09 14.3585 15.31 14.5785 15.59 14.5785H15.75Z" fill="#008DD2"/>
</g>
<defs>
<clipPath id="clip0_3001_19211">
<rect width="20" height="21" fill="white"/>
</clipPath>
</defs>
</svg>
