<svg width="34" height="34" viewBox="0 0 34 34" fill="none" xmlns="http://www.w3.org/2000/svg">
<g clip-path="url(#clip0_3001_19224)">
<path d="M0.725664 16.7965C0.724867 19.6532 1.47712 22.4425 2.90751 24.901L0.588867 33.3011L9.25249 31.0471C11.6487 32.3415 14.3336 33.0197 17.0619 33.0199H17.069C26.0757 33.0199 33.4074 25.7477 33.4112 16.8093C33.4129 12.478 31.7145 8.4051 28.6288 5.34089C25.5435 2.27693 21.4403 0.588662 17.0684 0.586685C8.06063 0.586685 0.729516 7.85847 0.725797 16.7965" fill="url(#paint0_linear_3001_19224)"/>
<path d="M0.142109 16.7913C0.14118 19.7507 0.920391 22.6398 2.40178 25.1864L0 33.8876L8.97427 31.5528C11.447 32.8905 14.231 33.5958 17.0639 33.5969H17.0712C26.401 33.5969 33.996 26.0631 34 16.8047C34.0016 12.3178 32.2421 8.09846 29.0461 4.92447C25.8497 1.75087 21.5997 0.00184496 17.0712 0C7.73978 0 0.145828 7.53271 0.142109 16.7913ZM5.48662 24.7478L5.15153 24.22C3.74292 21.9976 2.99944 19.4294 3.0005 16.7923C3.00342 9.09685 9.3152 2.83597 17.0765 2.83597C20.8351 2.83755 24.3674 4.29138 27.0242 6.92915C29.6808 9.56718 31.1427 13.0739 31.1417 16.8036C31.1383 24.4991 24.8264 30.7608 17.0712 30.7608H17.0656C14.5404 30.7595 12.0639 30.0866 9.90409 28.815L9.39011 28.5126L4.06459 29.898L5.48662 24.7478Z" fill="url(#paint1_linear_3001_19224)"/>
<path d="M12.8401 9.77141C12.5232 9.07256 12.1897 9.05846 11.8884 9.0462C11.6416 9.03566 11.3595 9.03645 11.0777 9.03645C10.7956 9.03645 10.3372 9.14175 9.94983 9.56147C9.56202 9.9816 8.46924 10.9969 8.46924 13.0618C8.46924 15.1267 9.98503 17.1224 10.1963 17.4027C10.4079 17.6825 13.1226 22.0556 17.422 23.7379C20.9952 25.136 21.7223 24.8579 22.4978 24.7878C23.2734 24.718 25.0005 23.7728 25.3529 22.7927C25.7055 21.8128 25.7055 20.9728 25.5998 20.7973C25.4941 20.6224 25.212 20.5174 24.789 20.3076C24.366 20.0978 22.2863 19.0823 21.8986 18.9422C21.5108 18.8022 21.2288 18.7324 20.9467 19.1526C20.6646 19.5722 19.8546 20.5174 19.6077 20.7973C19.3611 21.0779 19.1142 21.1128 18.6913 20.9028C18.268 20.6923 16.9058 20.2496 15.2896 18.8199C14.0321 17.7074 13.1832 16.3335 12.9364 15.9133C12.6896 15.4937 12.91 15.2662 13.1221 15.0571C13.3121 14.869 13.5452 14.567 13.7569 14.322C13.9678 14.0769 14.0382 13.902 14.1792 13.6221C14.3204 13.3419 14.2498 13.0968 14.1442 12.8869C14.0382 12.677 13.2162 10.6012 12.8401 9.77141Z" fill="white"/>
</g>
<defs>
<linearGradient id="paint0_linear_3001_19224" x1="1641.71" y1="3272.03" x2="1641.71" y2="0.586685" gradientUnits="userSpaceOnUse">
<stop stop-color="#1FAF38"/>
<stop offset="1" stop-color="#60D669"/>
</linearGradient>
<linearGradient id="paint1_linear_3001_19224" x1="1700" y1="3388.76" x2="1700" y2="0" gradientUnits="userSpaceOnUse">
<stop stop-color="#F9F9F9"/>
<stop offset="1" stop-color="white"/>
</linearGradient>
<clipPath id="clip0_3001_19224">
<rect width="34" height="34" fill="white"/>
</clipPath>
</defs>
</svg>
