<svg width="150" height="40" viewBox="0 0 150 40" fill="none" xmlns="http://www.w3.org/2000/svg">
  <path d="M28.75 20C28.75 24.8325 24.8325 28.75 20 28.75C15.1675 28.75 11.25 24.8325 11.25 20C11.25 15.1675 15.1675 11.25 20 11.25C24.8325 11.25 28.75 15.1675 28.75 20Z" fill="#0089D0"/>
  <path d="M23.75 17.5L20 23.75L16.25 17.5H23.75Z" fill="white"/>
  <path d="M39.6 13.6H43.8L51.2 28H46.4L45.3 25.8H38L37 28H32.2L39.6 13.6ZM44 22.4L41.7 17.4L39.3 22.4H44Z" fill="#0089D0"/>
  <path d="M52.4 13.6H57V23.4C57 24.2 57.2 24.8 57.7 25.2C58.2 25.6 58.8 25.8 59.6 25.8C60.4 25.8 61 25.6 61.5 25.2C62 24.8 62.2 24.2 62.2 23.4V13.6H66.8V23.4C66.8 24.8 66.4 26 65.7 27C65 28 64.1 28.7 63 29.2C61.9 29.7 60.8 30 59.6 30C58.4 30 57.3 29.7 56.2 29.2C55.1 28.7 54.2 28 53.5 27C52.8 26 52.4 24.8 52.4 23.4V13.6Z" fill="#0089D0"/>
  <path d="M69.2 13.6H73.8V17.2H69.2V13.6ZM69.2 18.8H73.8V28H69.2V18.8Z" fill="#0089D0"/>
  <path d="M76 13.6H80.6V28H76V13.6Z" fill="#0089D0"/>
  <path d="M82.8 18.8H87.4V28H82.8V18.8ZM82.8 13.6H87.4V17.2H82.8V13.6Z" fill="#0089D0"/>
  <path d="M89.8 18.8H94.4V20.2C94.9 19.7 95.4 19.3 96.1 19C96.8 18.7 97.5 18.6 98.2 18.6C99.8 18.6 101 19.1 101.9 20.1C102.8 21.1 103.2 22.5 103.2 24.4V28H98.6V24.8C98.6 24 98.5 23.4 98.2 23C97.9 22.6 97.5 22.4 96.9 22.4C96.3 22.4 95.8 22.6 95.5 23C95.2 23.4 95 24 95 24.8V28H90.4V18.8H89.8Z" fill="#0089D0"/>
  <path d="M105.2 13.6H109.8V28H105.2V13.6Z" fill="#0089D0"/>
  <path d="M112 18.8H116.6V28H112V18.8ZM112 13.6H116.6V17.2H112V13.6Z" fill="#0089D0"/>
  <path d="M126.4 18.8H131V28H126.4V26.6C125.9 27.1 125.4 27.5 124.7 27.8C124 28.1 123.3 28.2 122.6 28.2C121 28.2 119.8 27.7 118.9 26.7C118 25.7 117.6 24.3 117.6 22.4V18.8H122.2V22.4C122.2 23.2 122.3 23.8 122.6 24.2C122.9 24.6 123.3 24.8 123.9 24.8C124.5 24.8 125 24.6 125.3 24.2C125.6 23.8 125.8 23.2 125.8 22.4V18.8H126.4Z" fill="#0089D0"/>
  <path d="M133 18.8H137.6V20.2C138.1 19.7 138.6 19.3 139.3 19C140 18.7 140.7 18.6 141.4 18.6C143 18.6 144.2 19.1 145.1 20.1C146 21.1 146.4 22.5 146.4 24.4V28H141.8V24.8C141.8 24 141.7 23.4 141.4 23C141.1 22.6 140.7 22.4 140.1 22.4C139.5 22.4 139 22.6 138.7 23C138.4 23.4 138.2 24 138.2 24.8V28H133.6V18.8H133Z" fill="#0089D0"/>
</svg> 