<svg width="48" height="48" viewBox="0 0 48 48" fill="none" xmlns="http://www.w3.org/2000/svg">
<path d="M18.334 12.666V10.666C18.334 10.1193 17.8807 9.66602 17.334 9.66602C16.7873 9.66602 16.334 10.1193 16.334 10.666V12.746C16.6673 12.706 16.974 12.666 17.334 12.666H18.334Z" fill="#008DD2"/>
<path d="M29 12.746V10.666C29 10.1193 28.5467 9.66602 28 9.66602C27.4533 9.66602 27 10.1193 27 10.666V12.666H28C28.36 12.666 28.6667 12.706 29 12.746Z" fill="#008DD2"/>
<path d="M36.386 27.9593C35.3594 27.146 34.066 26.666 32.666 26.666C31.266 26.666 29.946 27.1593 28.9193 27.986C27.5327 29.0793 26.666 30.786 26.666 32.666C26.666 33.786 26.986 34.866 27.5327 35.746C27.9593 36.4393 28.506 37.0527 29.1593 37.5193C30.146 38.2393 31.346 38.666 32.666 38.666C34.186 38.666 35.5593 38.106 36.6127 37.1727C37.0793 36.786 37.4793 36.306 37.7993 35.7593C38.346 34.866 38.666 33.786 38.666 32.666C38.666 30.7593 37.7727 29.0527 36.386 27.9593ZM32.666 35.5193C32.666 33.946 31.386 32.666 29.8127 32.666C31.386 32.666 32.666 31.386 32.666 29.8127C32.666 31.386 33.946 32.666 35.5193 32.666C33.946 32.666 32.666 33.946 32.666 35.5193Z" fill="#008DD2"/>
<path d="M28.9993 12.746V14.666C28.9993 15.2127 28.546 15.666 27.9993 15.666C27.4527 15.666 26.9993 15.2127 26.9993 14.666V12.666H18.3327V14.666C18.3327 15.2127 17.8793 15.666 17.3327 15.666C16.786 15.666 16.3327 15.2127 16.3327 14.666V12.746C12.3993 13.106 10.666 15.6393 10.666 19.3327V30.666C10.666 34.666 12.666 37.3327 17.3327 37.3327H22.8393C23.8527 37.3327 24.5327 36.1993 24.2793 35.2127C24.0927 34.4927 23.9993 33.746 23.9993 32.9993C23.9993 30.226 25.2393 27.666 27.386 25.9727C28.946 24.706 30.946 23.9993 32.9993 23.9993H33.0527C33.8927 23.9993 34.666 23.386 34.666 22.546V19.3327C34.666 15.6393 32.9327 13.106 28.9993 12.746ZM19.9993 30.3327H17.3327C16.786 30.3327 16.3327 29.8793 16.3327 29.3327C16.3327 28.786 16.786 28.3327 17.3327 28.3327H19.9993C20.546 28.3327 20.9993 28.786 20.9993 29.3327C20.9993 29.8793 20.546 30.3327 19.9993 30.3327ZM23.9993 23.666H17.3327C16.786 23.666 16.3327 23.2127 16.3327 22.666C16.3327 22.1193 16.786 21.666 17.3327 21.666H23.9993C24.546 21.666 24.9993 22.1193 24.9993 22.666C24.9993 23.2127 24.546 23.666 23.9993 23.666Z" fill="#008DD2"/>
<path d="M33.6629 34.2571H35.7429C36.2476 34.2571 36.666 33.8386 36.666 33.334C36.666 32.8294 36.2476 32.4109 35.7429 32.4109H33.6629V30.2571C33.6629 29.7524 33.2445 29.334 32.7399 29.334C32.2229 29.334 31.8168 29.7524 31.8168 30.2571V32.4109H29.5891C29.0845 32.4109 28.666 32.8294 28.666 33.334C28.666 33.8386 29.0845 34.2571 29.5891 34.2571H31.8168V36.4109C31.8168 36.9155 32.2229 37.334 32.7399 37.334C33.2445 37.334 33.6629 36.9155 33.6629 36.4109V34.2571Z" fill="white"/>
</svg>
