<svg width="48" height="48" viewBox="0 0 48 48" fill="none" xmlns="http://www.w3.org/2000/svg">
<path d="M36.666 28.666C37.0393 28.666 37.3327 28.9593 37.3327 29.3327V30.666C37.3327 32.8793 35.546 34.666 33.3327 34.666C33.3327 32.466 31.5327 30.666 29.3327 30.666C27.1327 30.666 25.3327 32.466 25.3327 34.666H22.666C22.666 32.466 20.866 30.666 18.666 30.666C16.466 30.666 14.666 32.466 14.666 34.666C12.4527 34.666 10.666 32.8793 10.666 30.666V27.9993C10.666 27.266 11.266 26.666 11.9993 26.666H24.666C26.506 26.666 27.9993 25.1727 27.9993 23.3327V15.9993C27.9993 15.266 28.5993 14.666 29.3327 14.666H30.4527C31.4127 14.666 32.2927 15.186 32.7727 16.0127L33.626 17.506C33.746 17.7193 33.586 17.9993 33.3327 17.9993C31.4927 17.9993 29.9993 19.4927 29.9993 21.3327V25.3327C29.9993 27.1727 31.4927 28.666 33.3327 28.666H36.666Z" fill="#008DD2"/>
<path d="M18.6667 37.3333C20.1394 37.3333 21.3333 36.1394 21.3333 34.6667C21.3333 33.1939 20.1394 32 18.6667 32C17.1939 32 16 33.1939 16 34.6667C16 36.1394 17.1939 37.3333 18.6667 37.3333Z" fill="#008DD2"/>
<path d="M29.3327 37.3333C30.8054 37.3333 31.9993 36.1394 31.9993 34.6667C31.9993 33.1939 30.8054 32 29.3327 32C27.8599 32 26.666 33.1939 26.666 34.6667C26.666 36.1394 27.8599 37.3333 29.3327 37.3333Z" fill="#008DD2"/>
<path d="M37.3333 24.7067V26.6667H33.3333C32.6 26.6667 32 26.0667 32 25.3333V21.3333C32 20.6 32.6 20 33.3333 20H35.0533L36.9867 23.3867C37.2133 23.7867 37.3333 24.24 37.3333 24.7067Z" fill="#008DD2"/>
<path d="M25.4413 10.666H15.588C13.2013 10.666 11.2013 12.3727 10.7613 14.6393H16.588C17.0946 14.6393 17.4946 15.0527 17.4946 15.5593C17.4946 16.066 17.0946 16.466 16.588 16.466H10.668V18.306H14.1346C14.6413 18.306 15.0546 18.7193 15.0546 19.226C15.0546 19.7327 14.6413 20.1327 14.1346 20.1327H10.668V21.9727H11.6946C12.2013 21.9727 12.6146 22.386 12.6146 22.8927C12.6146 23.3993 12.2013 23.7993 11.6946 23.7993H10.668V24.106C10.668 24.8393 11.268 25.4393 12.0013 25.4393H24.2013C25.5613 25.4393 26.668 24.3327 26.668 22.9727V11.8927C26.668 11.2127 26.1213 10.666 25.4413 10.666Z" fill="#008DD2"/>
<path d="M10.7607 14.6387H10.5607H9.25398C8.74732 14.6387 8.33398 15.052 8.33398 15.5587C8.33398 16.0653 8.74732 16.4653 9.25398 16.4653H10.4673H10.6673V15.5853C10.6673 15.2653 10.7073 14.9453 10.7607 14.6387Z" fill="#008DD2"/>
<path d="M10.4673 18.3066H9.25398C8.74732 18.3066 8.33398 18.72 8.33398 19.2266C8.33398 19.7333 8.74732 20.1333 9.25398 20.1333H10.4673H10.6673V18.3066H10.4673Z" fill="#008DD2"/>
<path d="M10.4673 21.9727H9.25398C8.74732 21.9727 8.33398 22.386 8.33398 22.8927C8.33398 23.3993 8.74732 23.7993 9.25398 23.7993H10.4673H10.6673V21.9727H10.4673Z" fill="#008DD2"/>
</svg>
