<svg width="86" height="87" viewBox="0 0 86 87" fill="none" xmlns="http://www.w3.org/2000/svg">
<path d="M43.1097 0.794373C43.9385 0.794373 44.7334 1.12361 45.3194 1.70966C45.9055 2.29571 46.2347 3.09057 46.2347 3.91937V20.2256L55.6159 10.8444C56.2019 10.2581 56.9968 9.92868 57.8256 9.92848C58.236 9.92839 58.6425 10.0091 59.0217 10.1661C59.4009 10.3231 59.7455 10.5532 60.0357 10.8433C60.326 11.1335 60.5563 11.4779 60.7135 11.8571C60.8706 12.2362 60.9515 12.6426 60.9516 13.053C60.9517 13.4634 60.871 13.8698 60.714 14.2491C60.557 14.6283 60.3269 14.9728 60.0368 15.2631L46.2347 29.0652V40.3777H57.5472L71.3493 26.5756C71.6396 26.2855 71.9841 26.0554 72.3633 25.8984C72.7426 25.7414 73.149 25.6607 73.5594 25.6608C73.9698 25.6609 74.3762 25.7418 74.7553 25.899C75.1345 26.0561 75.4789 26.2864 75.7691 26.5767C76.0592 26.8669 76.2893 27.2115 76.4463 27.5907C76.6033 27.9699 76.684 28.3764 76.6839 28.7868C76.6838 29.1972 76.6029 29.6036 76.4457 29.9827C76.2886 30.3618 76.0583 30.7063 75.768 30.9965L66.3868 40.3777H82.693C83.5218 40.3777 84.3167 40.7069 84.9027 41.293C85.4888 41.879 85.818 42.6739 85.818 43.5027C85.818 44.3315 85.4888 45.1264 84.9027 45.7124C84.3167 46.2985 83.5218 46.6277 82.693 46.6277H66.3868L75.2618 55.5027C75.8477 56.0889 76.1768 56.8839 76.1766 57.7128C76.1764 58.5417 75.847 59.3365 75.2607 59.9225C74.6745 60.5085 73.8795 60.8375 73.0506 60.8373C72.2218 60.8371 71.4269 60.5077 70.8409 59.9215L57.5472 46.6277H46.2347V57.9402L59.5284 71.234C60.0977 71.8233 60.4127 72.6127 60.4056 73.4321C60.3984 74.2514 60.0698 75.0352 59.4904 75.6146C58.911 76.194 58.1272 76.5227 57.3078 76.5298C56.4885 76.5369 55.6991 76.2219 55.1097 75.6527L46.2347 66.7798V83.086C46.2347 83.9148 45.9055 84.7097 45.3194 85.2957C44.7334 85.8818 43.9385 86.211 43.1097 86.211C42.2809 86.211 41.486 85.8818 40.9 85.2957C40.3139 84.7097 39.9847 83.9148 39.9847 83.086V66.7798L30.6034 76.161C30.3133 76.4513 29.9688 76.6816 29.5897 76.8387C29.2106 76.9959 28.8042 77.0768 28.3938 77.0769C27.9834 77.077 27.5769 76.9963 27.1977 76.8393C26.8185 76.6823 26.4739 76.4522 26.1837 76.1621C25.5974 75.5761 25.268 74.7813 25.2678 73.9524C25.2677 73.542 25.3484 73.1356 25.5054 72.7564C25.6624 72.3771 25.8925 72.0326 26.1826 71.7423L39.9847 57.9402V46.6277H28.6722L14.8701 60.4298C14.2839 61.0157 13.4889 61.3448 12.66 61.3446C11.8311 61.3444 11.0363 61.015 10.4503 60.4287C9.86436 59.8425 9.53528 59.0475 9.53548 58.2186C9.53567 57.3898 9.86513 56.5949 10.4514 56.009L19.8326 46.6277H3.52637C2.69757 46.6277 1.90271 46.2985 1.31666 45.7124C0.730607 45.1264 0.401367 44.3315 0.401367 43.5027C0.401367 42.6739 0.730607 41.879 1.31666 41.293C1.90271 40.7069 2.69757 40.3777 3.52637 40.3777H19.8326L9.94303 30.4881C9.35707 29.9019 9.02799 29.1069 9.02819 28.278C9.02838 27.4491 9.35784 26.6543 9.94407 26.0683C10.5303 25.4824 11.3253 25.1533 12.1542 25.1535C12.9831 25.1537 13.7779 25.4831 14.3639 26.0694L28.6722 40.3777H39.9847V29.0652L25.6764 14.7569C25.0901 14.1709 24.7607 13.3761 24.7605 12.5472C24.7603 11.7183 25.0894 10.9233 25.6753 10.3371C26.2613 9.75084 27.0561 9.42139 27.885 9.42119C28.7139 9.421 29.5089 9.75008 30.0951 10.336L39.9847 20.2256V3.91937C39.9847 3.09057 40.3139 2.29571 40.9 1.70966C41.486 1.12361 42.2809 0.794373 43.1097 0.794373Z" fill="#008DD2"/>
<path d="M43.1097 0.794373C43.9385 0.794373 44.7334 1.12361 45.3194 1.70966C45.9055 2.29571 46.2347 3.09057 46.2347 3.91937V20.2256L55.6159 10.8444C56.2019 10.2581 56.9968 9.92868 57.8256 9.92848C58.236 9.92839 58.6425 10.0091 59.0217 10.1661C59.4009 10.3231 59.7455 10.5532 60.0357 10.8433C60.326 11.1335 60.5563 11.4779 60.7135 11.8571C60.8706 12.2362 60.9515 12.6426 60.9516 13.053C60.9517 13.4634 60.871 13.8698 60.714 14.2491C60.557 14.6283 60.3269 14.9728 60.0368 15.2631L46.2347 29.0652V40.3777H57.5472L71.3493 26.5756C71.6396 26.2855 71.9841 26.0554 72.3633 25.8984C72.7426 25.7414 73.149 25.6607 73.5594 25.6608C73.9698 25.6609 74.3762 25.7418 74.7553 25.899C75.1345 26.0561 75.4789 26.2864 75.7691 26.5767C76.0592 26.8669 76.2893 27.2115 76.4463 27.5907C76.6033 27.9699 76.684 28.3764 76.6839 28.7868C76.6838 29.1972 76.6029 29.6036 76.4457 29.9827C76.2886 30.3618 76.0583 30.7063 75.768 30.9965L66.3868 40.3777H82.693C83.5218 40.3777 84.3167 40.7069 84.9027 41.293C85.4888 41.879 85.818 42.6739 85.818 43.5027C85.818 44.3315 85.4888 45.1264 84.9027 45.7124C84.3167 46.2985 83.5218 46.6277 82.693 46.6277H66.3868L75.2618 55.5027C75.8477 56.0889 76.1768 56.8839 76.1766 57.7128C76.1764 58.5417 75.847 59.3365 75.2607 59.9225C74.6745 60.5085 73.8795 60.8375 73.0506 60.8373C72.2218 60.8371 71.4269 60.5077 70.8409 59.9215L57.5472 46.6277H46.2347V57.9402L59.5284 71.234C60.0977 71.8233 60.4127 72.6127 60.4056 73.4321C60.3984 74.2514 60.0698 75.0352 59.4904 75.6146C58.911 76.194 58.1272 76.5227 57.3078 76.5298C56.4885 76.5369 55.6991 76.2219 55.1097 75.6527L46.2347 66.7798V83.086C46.2347 83.9148 45.9055 84.7097 45.3194 85.2957C44.7334 85.8818 43.9385 86.211 43.1097 86.211C42.2809 86.211 41.486 85.8818 40.9 85.2957C40.3139 84.7097 39.9847 83.9148 39.9847 83.086V66.7798L30.6034 76.161C30.3133 76.4513 29.9688 76.6816 29.5897 76.8387C29.2106 76.9959 28.8042 77.0768 28.3938 77.0769C27.9834 77.077 27.5769 76.9963 27.1977 76.8393C26.8185 76.6823 26.4739 76.4522 26.1837 76.1621C25.5974 75.5761 25.268 74.7813 25.2678 73.9524C25.2677 73.542 25.3484 73.1356 25.5054 72.7564C25.6624 72.3771 25.8925 72.0326 26.1826 71.7423L39.9847 57.9402V46.6277H28.6722L14.8701 60.4298C14.2839 61.0157 13.4889 61.3448 12.66 61.3446C11.8311 61.3444 11.0363 61.015 10.4503 60.4287C9.86436 59.8425 9.53528 59.0475 9.53548 58.2186C9.53567 57.3898 9.86513 56.5949 10.4514 56.009L19.8326 46.6277H3.52637C2.69757 46.6277 1.90271 46.2985 1.31666 45.7124C0.730607 45.1264 0.401367 44.3315 0.401367 43.5027C0.401367 42.6739 0.730607 41.879 1.31666 41.293C1.90271 40.7069 2.69757 40.3777 3.52637 40.3777H19.8326L9.94303 30.4881C9.35707 29.9019 9.02799 29.1069 9.02819 28.278C9.02838 27.4491 9.35784 26.6543 9.94407 26.0683C10.5303 25.4824 11.3253 25.1533 12.1542 25.1535C12.9831 25.1537 13.7779 25.4831 14.3639 26.0694L28.6722 40.3777H39.9847V29.0652L25.6764 14.7569C25.0901 14.1709 24.7607 13.3761 24.7605 12.5472C24.7603 11.7183 25.0894 10.9233 25.6753 10.3371C26.2613 9.75084 27.0561 9.42139 27.885 9.42119C28.7139 9.421 29.5089 9.75008 30.0951 10.336L39.9847 20.2256V3.91937C39.9847 3.09057 40.3139 2.29571 40.9 1.70966C41.486 1.12361 42.2809 0.794373 43.1097 0.794373Z" fill="url(#paint0_linear_3003_23431)"/>
<defs>
<linearGradient id="paint0_linear_3003_23431" x1="21.066" y1="4.23812" x2="86.3055" y2="89.1256" gradientUnits="userSpaceOnUse">
<stop stop-color="#FF6CE8" stop-opacity="0"/>
<stop offset="0.326943" stop-color="white" stop-opacity="0.8"/>
<stop offset="1" stop-color="white" stop-opacity="0"/>
</linearGradient>
</defs>
</svg>
