<svg width="36" height="42" viewBox="0 0 36 42" fill="none" xmlns="http://www.w3.org/2000/svg">
  <path d="M35.114 14.1578C33.014 4.91781 24.954 0.757812 17.874 0.757812C17.874 0.757812 17.874 0.757812 17.854 0.757812C10.794 0.757812 2.71397 4.89781 0.61397 14.1378C-1.72603 24.4578 4.59397 33.1978 10.314 38.6978C12.434 40.7378 15.154 41.7578 17.874 41.7578C20.594 41.7578 23.314 40.7378 25.414 38.6978C31.134 33.1978 37.454 24.4778 35.114 14.1578ZM17.874 24.1778C14.394 24.1778 11.574 21.3578 11.574 17.8778C11.574 14.3978 14.394 11.5778 17.874 11.5778C21.354 11.5778 24.174 14.3978 24.174 17.8778C24.174 21.3578 21.354 24.1778 17.874 24.1778Z" fill="#008DD2" />
</svg> 