<svg width="32" height="32" viewBox="0 0 32 32" fill="none" xmlns="http://www.w3.org/2000/svg">
<g clip-path="url(#clip0_3001_19221)">
<path d="M16 0C11.7575 0 7.685 1.68675 4.6875 4.68625C1.68693 7.68696 0.000858621 11.7565 0 16C0 20.2417 1.6875 24.3142 4.6875 27.3137C7.685 30.3132 11.7575 32 16 32C20.2425 32 24.315 30.3132 27.3125 27.3137C30.3125 24.3142 32 20.2417 32 16C32 11.7583 30.3125 7.68575 27.3125 4.68625C24.315 1.68675 20.2425 0 16 0Z" fill="white"/>
<path d="M16 2.30962C12.3699 2.30962 8.88523 3.75288 6.32042 6.3194C3.75299 8.88695 2.3103 12.369 2.30957 16C2.30957 19.6294 3.75348 23.1141 6.32042 25.6806C8.88523 28.2471 12.3699 29.6904 16 29.6904C19.63 29.6904 23.1147 28.2471 25.6795 25.6806C28.2464 23.1141 29.6903 19.6294 29.6903 16C29.6903 12.3706 28.2464 8.88592 25.6795 6.3194C23.1147 3.75288 19.63 2.30962 16 2.30962Z" fill="#008DD2"/>
<path d="M8.33699 15.8522C12.4189 14.0742 15.1401 12.902 16.5007 12.3355C20.3901 10.7183 21.1973 10.4375 21.7245 10.4279C21.8404 10.4261 22.0986 10.4547 22.267 10.5909C22.407 10.7058 22.4464 10.8611 22.466 10.9701C22.4835 11.079 22.5076 11.3273 22.4879 11.5211C22.2779 13.7349 21.3657 19.107 20.902 21.5865C20.7073 22.6356 20.3201 22.9874 19.9461 23.0217C19.1323 23.0965 18.5154 22.4845 17.7279 21.9684C16.4964 21.1606 15.8007 20.6579 14.6042 19.8697C13.2217 18.9589 14.1186 18.4581 14.9061 17.64C15.1117 17.4259 18.6948 14.1676 18.7626 13.872C18.7714 13.8351 18.7801 13.6973 18.697 13.6246C18.6161 13.5518 18.4957 13.5767 18.4082 13.5964C18.2836 13.6244 16.317 14.9255 12.502 17.4996C11.9442 17.8833 11.4389 18.0703 10.9839 18.0605C10.4851 18.0497 9.52261 17.7778 8.8073 17.5455C7.9323 17.2605 7.23449 17.1098 7.29574 16.6257C7.32636 16.3737 7.67418 16.1158 8.33699 15.8522Z" fill="white"/>
</g>
<defs>
<clipPath id="clip0_3001_19221">
<rect width="32" height="32" fill="white"/>
</clipPath>
</defs>
</svg>
