<svg width="32" height="32" viewBox="0 0 32 32" fill="none" xmlns="http://www.w3.org/2000/svg">
<path d="M22.667 3.24H9.33366C5.33366 3.24 2.66699 5.90667 2.66699 9.90667V17.9067C2.66699 21.9067 5.33366 24.5733 9.33366 24.5733V27.4133C9.33366 28.48 10.5203 29.12 11.4003 28.52L17.3337 24.5733H22.667C26.667 24.5733 29.3337 21.9067 29.3337 17.9067V9.90667C29.3337 5.90667 26.667 3.24 22.667 3.24ZM16.0003 19.4667C15.4403 19.4667 15.0003 19.0133 15.0003 18.4667C15.0003 17.92 15.4403 17.4667 16.0003 17.4667C16.5603 17.4667 17.0003 17.92 17.0003 18.4667C17.0003 19.0133 16.5603 19.4667 16.0003 19.4667ZM17.6803 13.9333C17.1603 14.28 17.0003 14.5067 17.0003 14.88V15.16C17.0003 15.7067 16.547 16.16 16.0003 16.16C15.4537 16.16 15.0003 15.7067 15.0003 15.16V14.88C15.0003 13.3333 16.1337 12.5733 16.5603 12.28C17.0537 11.9467 17.2137 11.72 17.2137 11.3733C17.2137 10.7067 16.667 10.16 16.0003 10.16C15.3337 10.16 14.787 10.7067 14.787 11.3733C14.787 11.92 14.3337 12.3733 13.787 12.3733C13.2403 12.3733 12.787 11.92 12.787 11.3733C12.787 9.6 14.227 8.16 16.0003 8.16C17.7737 8.16 19.2137 9.6 19.2137 11.3733C19.2137 12.8933 18.0937 13.6533 17.6803 13.9333Z" fill="#4D4D4D"/>
</svg>
