<?xml version="1.0" encoding="UTF-8"?>
<!DOCTYPE svg PUBLIC "-//W3C//DTD SVG 1.0//EN" "http://www.w3.org/TR/2001/REC-SVG-20010904/DTD/svg10.dtd">
<!-- Creator: CorelDRAW -->
<svg xmlns="http://www.w3.org/2000/svg" xml:space="preserve" width="700mm" height="250mm" version="1.0" style="shape-rendering:geometricPrecision; text-rendering:geometricPrecision; image-rendering:optimizeQuality; fill-rule:evenodd; clip-rule:evenodd"
viewBox="0 0 70000 25000"
 xmlns:xlink="http://www.w3.org/1999/xlink"
 xmlns:xodm="http://www.corel.com/coreldraw/odm/2003">
 <defs>
  <style type="text/css">
   <![CDATA[
    .fil1 {fill:#003768}
    .fil0 {fill:#003768;fill-rule:nonzero}
   ]]>
  </style>
 </defs>
 <g id="Слой_x0020_1">
  <metadata id="CorelCorpID_0Corel-Layer"/>
  <path class="fil0" d="M27912.04 17782.17l-2304.4 0 -914.54 -2381.56 -4190.35 0 -864.03 2381.56 -2245.28 0 4082.57 -10481.59 2238.3 0 4197.73 10481.59zm-3897.63 -4146l-1445.03 -3890.19 -1415.46 3890.19 2860.49 0zm8383.59 1730.16l2003.78 334.2c-258.43,734.73 -663.91,1293.72 -1220.4,1676.63 -553.87,385.52 -1248.97,575.81 -2083.68,575.81 -1320.84,0 -2296.77,-429.05 -2931.12,-1293.55 -500.28,-690.16 -751.79,-1564.09 -751.79,-2615.96 0,-1259.45 329.31,-2245.05 988.1,-2957.78 656.7,-712.57 1488.73,-1068.76 2494.46,-1068.76 1129.68,0 2020.6,373.01 2674.44,1119.85 652.22,747.07 964.48,1889.08 937.59,3429.37l-5034.47 0c14.54,595.12 175.27,1058.62 485.49,1388.16 309.58,332.16 697.78,498.19 1159.24,498.19 314.53,0 577.91,-85.6 793.04,-256.57 214.5,-173.3 378.13,-448.78 485.32,-829.59zm114.93 -2030.31c-14.55,-583.61 -163.81,-1025.17 -448.95,-1327.77 -285.55,-302.6 -634.52,-454.13 -1044.72,-454.13 -439.29,0 -800.84,161.13 -1085.98,481.19 -285.54,316.8 -427.01,751.37 -422.3,1300.71l3001.95 0zm4539.56 4446.15l-2008.32 0 0 -7592.36 1864.41 0 0 1079c320.05,-509.94 607.87,-846.87 861.35,-1008.18 256.63,-161.19 545.26,-243.71 869.22,-243.71 459.02,0 898.37,126.86 1322.7,380.4l-622.25 1749.66c-337.1,-216.77 -651.98,-326.57 -941.89,-326.57 -283.45,0 -519.95,75.53 -715,231.37 -197.92,153.74 -349.39,434.75 -461.29,839.59 -112.66,405.25 -168.93,1254.5 -168.93,2545.78l0 2345.02zm2292.64 -3904.39c0,-666.35 165.91,-1313.04 492.89,-1938.14 329.48,-622.01 795.48,-1100.52 1398.47,-1427.56 602.69,-329.49 1276.67,-495.16 2021.06,-495.16 1146.91,0 2088.8,373.01 2823.3,1119.85 734.33,747.07 1100.53,1688.9 1100.53,2828.65 0,1146.96 -370.74,2098.87 -1110.6,2855.6 -741.71,756.26 -1673.89,1131.95 -2799.09,1131.95 -697.78,0 -1359.42,-156.25 -1991.5,-470.72 -631.44,-315.11 -1112.69,-776.22 -1442.17,-1383.86 -326.98,-607.64 -492.89,-1347.09 -492.89,-2220.61zm2059.07 106.96c0,754.46 178.76,1330.5 537.63,1730.57 356.37,400.3 798.16,600.48 1322.24,600.48 525.12,0 964.65,-200.18 1318.57,-600.48 356.19,-400.07 534.2,-981.06 534.2,-1745.12 0,-741.71 -178.01,-1315.31 -534.2,-1715.61 -353.92,-400.31 -793.45,-600.25 -1318.57,-600.25 -524.08,0 -965.87,199.94 -1322.24,600.25 -358.87,400.3 -537.63,979.02 -537.63,1730.16zm6334.54 3797.43l0 -10481.59 2008.15 0 0 10481.59 -2008.15 0zm3051.64 -8622.12l0 -1859.47 2008.32 0 0 1859.47 -2008.32 0zm0 8622.12l0 -7592.36 2008.32 0 0 7592.36 -2008.32 0zm9957.29 0l-2008.32 0 0 -3875.41c0,-819.75 -43.76,-1349.59 -129.13,-1591.2 -85.6,-239.4 -227.07,-427.01 -419.8,-561.26 -193.2,-131.63 -424.57,-200.18 -695.57,-200.18 -349.38,0 -661.17,95.26 -937.93,285.37 -275.49,193.14 -465.37,444.42 -568.25,759.18 -102.42,314.7 -153.34,895.63 -153.34,1745.11l0 3438.39 -2008.55 0 0 -7592.36 1864.41 0 0 1115.07c663.74,-858.5 1498.62,-1287.96 2504.12,-1287.96 441.15,0 848.9,80.31 1215.34,239.17 366.03,160.73 644.18,363.58 832.03,612.18 187.84,249.24 319.82,529.84 392.91,844.54 75.53,314.93 112.08,763.65 112.08,1349.59l0 4719.77zm5416.1 -2415.84l2004.07 334.2c-259.07,734.73 -664.15,1293.72 -1220.69,1676.63 -554.05,385.52 -1249.56,575.81 -2083.63,575.81 -1321.07,0 -2296.6,-429.05 -2931.36,-1293.55 -500.68,-690.16 -751.55,-1564.09 -751.55,-2615.96 0,-1259.45 329.31,-2245.05 988.05,-2957.78 656.34,-712.57 1488.78,-1068.76 2494.28,-1068.76 1129.91,0 2020.83,373.01 2674.91,1119.85 651.98,747.07 964.24,1889.08 936.95,3429.37l-5034.71 0c15.18,595.12 175.74,1058.62 485.9,1388.16 309.99,332.16 698.01,498.19 1159.24,498.19 314.76,0 578.14,-85.6 793.27,-256.57 214.32,-173.3 378.37,-448.78 485.27,-829.59zm115.22 -2030.31c-15.02,-583.61 -164.05,-1025.17 -449.6,-1327.77 -285.37,-302.6 -634.35,-454.13 -1044.54,-454.13 -439.12,0 -800.61,161.13 -1085.98,481.19 -285.31,316.8 -426.78,751.37 -422.06,1300.71l3002.18 0z"/>
  <path class="fil1" d="M9477.46 4748.97c4283.73,0 7756.35,3472.65 7756.35,7756.35 0,4283.73 -3472.62,7756.36 -7756.35,7756.36 -4283.71,0 -7756.35,-3472.63 -7756.35,-7756.36 0,-4283.7 3472.64,-7756.35 7756.35,-7756.35zm174.03 7568.01l3272.77 -1650.05c898.79,-325.84 1262.91,-262.81 1529.82,-5.36 304.25,41.5 497.34,149.38 499.61,286.49 -26.37,471.04 -465.91,830.67 -881.16,1074.86l-1701.08 770.83 -181.83 215.83 2002.91 1347.47 -223.49 211.47 -779.41 -232.07 -111.54 151.59 -1533.11 -452.64 -1580.13 -151.13 -1631.84 739.44c-184.84,51.64 -430.06,94.48 -697.59,128.97l238.23 164.23 -247.1 121.52 -749.18 -212c-647.11,45.88 -1226.06,48.14 -1248.39,12.34 -62.42,-76 -4.92,-185.69 120.42,-310.54l-1796.83 -470.06 251.14 -133.49 1906.47 257.09 -274.72 -1755.56 57.55 -46.09 -854.76 -241.64 159.98 -203.53 -80.7 23.19 -1459.81 -400.88 -30.77 -115.09 574.95 -55.66 4631.48 834.31 262.49 10.62 555.62 85.54zm-2370.89 1195.35l834.46 -420.72 -296.16 -151.69 -152.39 -58.44 -1184.95 -334.98 670.76 883.54 128.28 82.29zm2196.86 -7655.3c3671.76,0 6648.31,2976.53 6648.31,6648.29 0,3671.77 -2976.55,6648.32 -6648.31,6648.32 -3671.76,0 -6648.29,-2976.55 -6648.29,-6648.32 0,-3671.76 2976.53,-6648.29 6648.29,-6648.29z"/>
 </g>
</svg>
