<svg width="20" height="21" viewBox="0 0 20 21" fill="none" xmlns="http://www.w3.org/2000/svg">
<g clip-path="url(#clip0_3001_19216)">
<path d="M15.62 9.73052C15.4158 9.73052 15.2199 9.64939 15.0755 9.50499C14.9311 9.36058 14.85 9.16473 14.85 8.96052C14.85 8.59052 14.48 7.82052 13.86 7.15052C13.25 6.50052 12.58 6.12052 12.02 6.12052C11.8158 6.12052 11.6199 6.03939 11.4755 5.89499C11.3311 5.75059 11.25 5.55473 11.25 5.35052C11.25 4.93052 11.6 4.58052 12.02 4.58052C13.02 4.58052 14.07 5.12052 14.99 6.09052C15.85 7.00052 16.4 8.13052 16.4 8.95052C16.4 9.38052 16.05 9.73052 15.62 9.73052ZM19.23 9.72852C19.0258 9.72852 18.8299 9.64739 18.6855 9.50299C18.5411 9.35858 18.46 9.16273 18.46 8.95852C18.46 5.40852 15.57 2.52852 12.03 2.52852C11.8258 2.52852 11.6299 2.44739 11.4855 2.30299C11.3411 2.15858 11.26 1.96273 11.26 1.75852C11.26 1.33852 11.6 0.978516 12.02 0.978516C16.42 0.978516 20 4.55852 20 8.95852C20 9.37852 19.65 9.72852 19.23 9.72852ZM9.05 13.9285L7.2 15.7785C6.81 16.1685 6.19 16.1685 5.79 15.7885C5.68 15.6785 5.57 15.5785 5.46 15.4685C4.44877 14.4505 3.5161 13.3574 2.67 12.1985C1.85 11.0585 1.19 9.91852 0.71 8.78852C0.24 7.64852 0 6.55852 0 5.51852C0 4.83852 0.12 4.18852 0.36 3.58852C0.6 2.97852 0.98 2.41852 1.51 1.91852C2.15 1.28852 2.85 0.978516 3.59 0.978516C3.87 0.978516 4.15 1.03852 4.4 1.15852C4.66 1.27852 4.89 1.45852 5.07 1.71852L7.39 4.98852C7.57 5.23852 7.7 5.46852 7.79 5.68852C7.88 5.89852 7.93 6.10852 7.93 6.29852C7.93 6.53852 7.86 6.77852 7.72 7.00852C7.59 7.23852 7.4 7.47852 7.16 7.71852L6.4 8.50852C6.29 8.61852 6.24 8.74852 6.24 8.90852C6.24 8.98852 6.25 9.05852 6.27 9.13852C6.3 9.21852 6.33 9.27852 6.35 9.33852C6.53 9.66852 6.84 10.0985 7.28 10.6185C7.73 11.1385 8.21 11.6685 8.73 12.1985C8.83 12.2985 8.94 12.3985 9.04 12.4985C9.44 12.8885 9.45 13.5285 9.05 13.9285ZM19.97 17.3085C19.9687 17.6859 19.8833 18.0583 19.72 18.3985C19.55 18.7585 19.33 19.0985 19.04 19.4185C18.55 19.9585 18.01 20.3485 17.4 20.5985C17.39 20.5985 17.38 20.6085 17.37 20.6085C16.78 20.8485 16.14 20.9785 15.45 20.9785C14.43 20.9785 13.34 20.7385 12.19 20.2485C11.04 19.7585 9.89 19.0985 8.75 18.2685C8.36 17.9785 7.97 17.6885 7.6 17.3785L10.87 14.1085C11.15 14.3185 11.4 14.4785 11.61 14.5885C11.66 14.6085 11.72 14.6385 11.79 14.6685C11.87 14.6985 11.95 14.7085 12.04 14.7085C12.21 14.7085 12.34 14.6485 12.45 14.5385L13.21 13.7885C13.46 13.5385 13.7 13.3485 13.93 13.2285C14.16 13.0885 14.39 13.0185 14.64 13.0185C14.83 13.0185 15.03 13.0585 15.25 13.1485C15.47 13.2385 15.7 13.3685 15.95 13.5385L19.26 15.8885C19.52 16.0685 19.7 16.2785 19.81 16.5285C19.91 16.7785 19.97 17.0285 19.97 17.3085Z" fill="#008DD2"/>
</g>
<defs>
<clipPath id="clip0_3001_19216">
<rect width="20" height="21" fill="white"/>
</clipPath>
</defs>
</svg>
