<svg width="20" height="22" viewBox="0 0 20 22" fill="none" xmlns="http://www.w3.org/2000/svg">
<g clip-path="url(#clip0_3001_19307)">
<path d="M15.62 10.2305C15.4158 10.2305 15.2199 10.1494 15.0755 10.005C14.9311 9.86058 14.85 9.66473 14.85 9.46052C14.85 9.09052 14.48 8.32052 13.86 7.65052C13.25 7.00052 12.58 6.62052 12.02 6.62052C11.8158 6.62052 11.6199 6.53939 11.4755 6.39499C11.3311 6.25059 11.25 6.05473 11.25 5.85052C11.25 5.43052 11.6 5.08052 12.02 5.08052C13.02 5.08052 14.07 5.62052 14.99 6.59052C15.85 7.50052 16.4 8.63052 16.4 9.45052C16.4 9.88052 16.05 10.2305 15.62 10.2305ZM19.23 10.2285C19.0258 10.2285 18.8299 10.1474 18.6855 10.003C18.5411 9.85858 18.46 9.66273 18.46 9.45852C18.46 5.90852 15.57 3.02852 12.03 3.02852C11.8258 3.02852 11.6299 2.94739 11.4855 2.80299C11.3411 2.65858 11.26 2.46273 11.26 2.25852C11.26 1.83852 11.6 1.47852 12.02 1.47852C16.42 1.47852 20 5.05852 20 9.45852C20 9.87852 19.65 10.2285 19.23 10.2285ZM9.05 14.4285L7.2 16.2785C6.81 16.6685 6.19 16.6685 5.79 16.2885C5.68 16.1785 5.57 16.0785 5.46 15.9685C4.44877 14.9505 3.5161 13.8574 2.67 12.6985C1.85 11.5585 1.19 10.4185 0.71 9.28852C0.24 8.14852 0 7.05852 0 6.01852C0 5.33852 0.12 4.68852 0.36 4.08852C0.6 3.47852 0.98 2.91852 1.51 2.41852C2.15 1.78852 2.85 1.47852 3.59 1.47852C3.87 1.47852 4.15 1.53852 4.4 1.65852C4.66 1.77852 4.89 1.95852 5.07 2.21852L7.39 5.48852C7.57 5.73852 7.7 5.96852 7.79 6.18852C7.88 6.39852 7.93 6.60852 7.93 6.79852C7.93 7.03852 7.86 7.27852 7.72 7.50852C7.59 7.73852 7.4 7.97852 7.16 8.21852L6.4 9.00852C6.29 9.11852 6.24 9.24852 6.24 9.40852C6.24 9.48852 6.25 9.55852 6.27 9.63852C6.3 9.71852 6.33 9.77852 6.35 9.83852C6.53 10.1685 6.84 10.5985 7.28 11.1185C7.73 11.6385 8.21 12.1685 8.73 12.6985C8.83 12.7985 8.94 12.8985 9.04 12.9985C9.44 13.3885 9.45 14.0285 9.05 14.4285ZM19.97 17.8085C19.9687 18.1859 19.8833 18.5583 19.72 18.8985C19.55 19.2585 19.33 19.5985 19.04 19.9185C18.55 20.4585 18.01 20.8485 17.4 21.0985C17.39 21.0985 17.38 21.1085 17.37 21.1085C16.78 21.3485 16.14 21.4785 15.45 21.4785C14.43 21.4785 13.34 21.2385 12.19 20.7485C11.04 20.2585 9.89 19.5985 8.75 18.7685C8.36 18.4785 7.97 18.1885 7.6 17.8785L10.87 14.6085C11.15 14.8185 11.4 14.9785 11.61 15.0885C11.66 15.1085 11.72 15.1385 11.79 15.1685C11.87 15.1985 11.95 15.2085 12.04 15.2085C12.21 15.2085 12.34 15.1485 12.45 15.0385L13.21 14.2885C13.46 14.0385 13.7 13.8485 13.93 13.7285C14.16 13.5885 14.39 13.5185 14.64 13.5185C14.83 13.5185 15.03 13.5585 15.25 13.6485C15.47 13.7385 15.7 13.8685 15.95 14.0385L19.26 16.3885C19.52 16.5685 19.7 16.7785 19.81 17.0285C19.91 17.2785 19.97 17.5285 19.97 17.8085Z" fill="white"/>
</g>
<defs>
<clipPath id="clip0_3001_19307">
<rect width="20" height="21" fill="white" transform="translate(0 0.5)"/>
</clipPath>
</defs>
</svg>
