<svg width="48" height="48" viewBox="0 0 48 48" fill="none" xmlns="http://www.w3.org/2000/svg">
<rect width="48" height="48" rx="10" fill="white"/>
<path d="M18.332 12.6667V10.6667C18.332 10.1201 17.8787 9.66675 17.332 9.66675C16.7854 9.66675 16.332 10.1201 16.332 10.6667V12.7467C16.6654 12.7067 16.972 12.6667 17.332 12.6667H18.332Z" fill="#008DD2"/>
<path d="M29 12.7467V10.6667C29 10.1201 28.5467 9.66675 28 9.66675C27.4533 9.66675 27 10.1201 27 10.6667V12.6667H28C28.36 12.6667 28.6667 12.7067 29 12.7467Z" fill="#008DD2"/>
<path d="M36.388 27.9601C35.3613 27.1467 34.068 26.6667 32.668 26.6667C31.268 26.6667 29.948 27.1601 28.9213 27.9867C27.5346 29.0801 26.668 30.7867 26.668 32.6667C26.668 33.7867 26.988 34.8667 27.5346 35.7467C27.9613 36.4401 28.508 37.0534 29.1613 37.5201C30.148 38.2401 31.348 38.6667 32.668 38.6667C34.188 38.6667 35.5613 38.1067 36.6146 37.1734C37.0813 36.7867 37.4813 36.3067 37.8013 35.7601C38.348 34.8667 38.668 33.7867 38.668 32.6667C38.668 30.7601 37.7746 29.0534 36.388 27.9601ZM32.668 35.5201C32.668 33.9467 31.388 32.6667 29.8146 32.6667C31.388 32.6667 32.668 31.3867 32.668 29.8134C32.668 31.3867 33.948 32.6667 35.5213 32.6667C33.948 32.6667 32.668 33.9467 32.668 35.5201Z" fill="#008DD2"/>
<path d="M29.0013 12.7467V14.6667C29.0013 15.2134 28.548 15.6667 28.0013 15.6667C27.4546 15.6667 27.0013 15.2134 27.0013 14.6667V12.6667H18.3346V14.6667C18.3346 15.2134 17.8813 15.6667 17.3346 15.6667C16.788 15.6667 16.3346 15.2134 16.3346 14.6667V12.7467C12.4013 13.1067 10.668 15.6401 10.668 19.3334V30.6667C10.668 34.6667 12.668 37.3334 17.3346 37.3334H22.8413C23.8546 37.3334 24.5346 36.2001 24.2813 35.2134C24.0946 34.4934 24.0013 33.7467 24.0013 33.0001C24.0013 30.2267 25.2413 27.6667 27.388 25.9734C28.948 24.7067 30.948 24.0001 33.0013 24.0001H33.0546C33.8946 24.0001 34.668 23.3867 34.668 22.5467V19.3334C34.668 15.6401 32.9346 13.1067 29.0013 12.7467ZM20.0013 30.3334H17.3346C16.788 30.3334 16.3346 29.8801 16.3346 29.3334C16.3346 28.7867 16.788 28.3334 17.3346 28.3334H20.0013C20.548 28.3334 21.0013 28.7867 21.0013 29.3334C21.0013 29.8801 20.548 30.3334 20.0013 30.3334ZM24.0013 23.6667H17.3346C16.788 23.6667 16.3346 23.2134 16.3346 22.6667C16.3346 22.1201 16.788 21.6667 17.3346 21.6667H24.0013C24.548 21.6667 25.0013 22.1201 25.0013 22.6667C25.0013 23.2134 24.548 23.6667 24.0013 23.6667Z" fill="#008DD2"/>
<path d="M33.6649 34.2563H35.7449C36.2495 34.2563 36.668 33.8379 36.668 33.3333C36.668 32.8286 36.2495 32.4102 35.7449 32.4102H33.6649V30.2563C33.6649 29.7517 33.2464 29.3333 32.7418 29.3333C32.2249 29.3333 31.8187 29.7517 31.8187 30.2563V32.4102H29.591C29.0864 32.4102 28.668 32.8286 28.668 33.3333C28.668 33.8379 29.0864 34.2563 29.591 34.2563H31.8187V36.4102C31.8187 36.9148 32.2249 37.3333 32.7418 37.3333C33.2464 37.3333 33.6649 36.9148 33.6649 36.4102V34.2563Z" fill="white"/>
</svg>
