<svg width="48" height="48" viewBox="0 0 48 48" fill="none" xmlns="http://www.w3.org/2000/svg">
<rect width="48" height="48" rx="10" fill="white"/>
<path d="M12 26.067V19.489C12 16.453 14.688 14 18 14H30C33.312 14 36 16.453 36 19.489V27.167C36 30.192 33.312 32.645 30 32.645H28.2C27.828 32.645 27.468 32.81 27.24 33.085L25.44 35.274C24.648 36.242 23.352 36.242 22.56 35.274L20.76 33.085C20.568 32.843 20.136 32.645 19.8 32.645H18C14.688 32.645 12 30.192 12 27.167V26.067Z" fill="#008DD2"/>
<path d="M24 25C23.16 25 22.5 24.325 22.5 23.5C22.5 22.675 23.175 22 24 22C24.825 22 25.5 22.675 25.5 23.5C25.5 24.325 24.84 25 24 25Z" fill="white"/>
<path d="M30 25C29.16 25 28.5 24.325 28.5 23.5C28.5 22.675 29.175 22 30 22C30.825 22 31.5 22.675 31.5 23.5C31.5 24.325 30.84 25 30 25Z" fill="white"/>
<path d="M18 25C17.16 25 16.5 24.325 16.5 23.5C16.5 22.675 17.175 22 18 22C18.825 22 19.5 22.675 19.5 23.5C19.5 24.325 18.84 25 18 25Z" fill="white"/>
</svg>
