<svg width="48" height="48" viewBox="0 0 48 48" fill="none" xmlns="http://www.w3.org/2000/svg">
<rect width="48" height="48" rx="10" fill="white"/>
<circle cx="24" cy="24" r="12" fill="#008DD2"/>
<path d="M24 16C28.4 16 32 19.6 32 24C32 28.4 28.4 32 24 32C19.6 32 16 28.4 16 24C16 19.6 19.6 16 24 16ZM24 17.6C22.48 17.6 21.12 18.08 20.08 18.96L29.04 27.92C29.84 26.8 30.4 25.44 30.4 24C30.4 20.48 27.52 17.6 24 17.6ZM27.92 29.04L18.96 20.08C18.08 21.12 17.6 22.48 17.6 24C17.6 27.52 20.48 30.4 24 30.4C25.52 30.4 26.88 29.92 27.92 29.04Z" fill="white"/>
</svg>
