<svg width="52" height="36" viewBox="0 0 52 36" fill="none" xmlns="http://www.w3.org/2000/svg">
<path d="M35.3335 3.66666C41.7767 3.66683 46.9995 8.89043 46.9995 15.3336C46.9993 21.7767 41.7766 26.9995 35.3335 26.9997C28.8903 26.9997 23.6667 21.7768 23.6665 15.3336C23.6665 8.89033 28.8902 3.66666 35.3335 3.66666Z" fill="#4D4D4D" stroke="#4D4D4D" stroke-width="2"/>
<path d="M48.4004 29.3334C48.1604 29.3334 47.9204 29.24 47.7471 29.0667L45.2671 26.5867C44.9071 26.2267 44.9071 25.64 45.2671 25.2667C45.6271 24.9067 46.2137 24.9067 46.5871 25.2667L49.0671 27.7467C49.4271 28.1067 49.4271 28.6934 49.0671 29.0667C48.8804 29.24 48.6404 29.3334 48.4004 29.3334Z" fill="#4D4D4D"/>
<path d="M17.0132 3.94235C18.2013 3.94235 19.4388 4.1937 20.4263 4.74704L20.4253 4.74801L28.0933 8.99118L28.3179 9.12106C28.7613 9.3932 29.1678 9.73669 29.5278 10.1084L29.7036 10.2959L29.7134 10.3066L29.7222 10.3164C30.6696 11.4296 30.3151 13.1329 29.0806 13.8515L29.0786 13.8525L18.1704 20.1699L18.1714 20.1709C17.4502 20.5896 16.5596 20.5823 15.8384 20.1767L15.8286 20.1709L4.92041 13.8525L4.91846 13.8515C3.68427 13.1333 3.32308 11.4216 4.31494 10.3056H4.31396C4.7268 9.8359 5.19854 9.431 5.71143 9.11911L5.93311 8.99118L13.605 4.74508C14.5918 4.19325 15.8267 3.94239 17.0132 3.94235Z" fill="#828282" stroke="white" stroke-width="1.78947"/>
<path d="M16.192 22.0317V31.6933C16.192 32.77 15.1012 33.4783 14.1379 33.0108C11.2195 31.58 6.30369 28.9025 6.30369 28.9025C4.57536 27.925 3.15869 25.46 3.15869 23.4342V16.1242C3.15869 15.005 4.33452 14.2967 5.29786 14.8492L15.4837 20.7567C15.9087 21.0258 16.192 21.5075 16.192 22.0317Z" fill="#828282"/>
<path d="M28.5474 14.2893C29.8789 13.6413 31.4067 14.6389 31.4067 16.1243V23.4339C31.4067 24.5689 31.0144 25.7889 30.4077 26.844C29.8014 27.8985 28.9489 28.8444 27.9741 29.3958L27.9663 29.4007H27.9653C27.9647 29.401 27.9635 29.402 27.9624 29.4026C27.96 29.4039 27.9561 29.4061 27.9517 29.4085C27.9423 29.4136 27.9286 29.4212 27.9106 29.4309C27.8738 29.451 27.8187 29.4807 27.7485 29.5188C27.6081 29.595 27.4043 29.7053 27.1509 29.8421C26.6437 30.1158 25.9371 30.4955 25.1392 30.9202C23.5449 31.7687 21.5791 32.7999 20.1108 33.5198L20.1089 33.5208C18.753 34.1788 17.2409 33.1702 17.2407 31.6936V22.0315C17.2408 21.304 17.6314 20.6456 18.2124 20.2776L18.2212 20.2717L18.231 20.2669L28.4175 14.3587L28.4194 14.3577L28.5474 14.2893Z" fill="#828282" stroke="white" stroke-width="1.13333"/>
</svg>
