<svg width="48" height="48" viewBox="0 0 48 48" fill="none" xmlns="http://www.w3.org/2000/svg">
<path d="M9.33398 24.0333C9.33398 23.5889 9.43398 23.1778 9.63398 22.8C9.83398 22.4222 10.1118 22.1111 10.4673 21.8667L17.134 17.1C17.3784 16.9222 17.6287 16.7942 17.8847 16.716C18.1407 16.6378 18.4015 16.5991 18.6673 16.6C18.9331 16.6009 19.1944 16.64 19.4513 16.7173C19.7082 16.7947 19.958 16.9222 20.2007 17.1L26.8673 21.8667C27.2229 22.1111 27.5007 22.4222 27.7007 22.8C27.9007 23.1778 28.0007 23.5889 28.0007 24.0333V33.3333C28.0007 34.0667 27.7398 34.6947 27.218 35.2173C26.6962 35.74 26.0682 36.0009 25.334 36H24.0007C23.2673 36 22.6398 35.7391 22.118 35.2173C21.5962 34.6956 21.3349 34.0676 21.334 33.3333V30C21.334 29.4444 21.1398 28.9724 20.7513 28.584C20.3629 28.1956 19.8904 28.0009 19.334 28H18.0007C17.4451 28 16.9731 28.1947 16.5847 28.584C16.1962 28.9733 16.0015 29.4453 16.0007 30V33.3333C16.0007 34.0667 15.7398 34.6947 15.218 35.2173C14.6962 35.74 14.0682 36.0009 13.334 36H12.0007C11.2673 36 10.6398 35.7391 10.118 35.2173C9.59621 34.6956 9.33487 34.0676 9.33398 33.3333V24.0333ZM38.6673 14.6667V33.3333C38.6673 34.0667 38.4064 34.6947 37.8847 35.2173C37.3629 35.74 36.7349 36.0009 36.0007 36H32.0007C31.6229 36 31.3064 35.872 31.0513 35.616C30.7962 35.36 30.6682 35.0436 30.6673 34.6667V22.7C30.6673 22.2556 30.5727 21.8444 30.3833 21.4667C30.194 21.0889 29.922 20.7778 29.5673 20.5333L22.6007 15.5333C22.3118 15.3111 22.0784 15.0444 21.9007 14.7333C21.7229 14.4222 21.634 14.1111 21.634 13.8C21.634 13.2444 21.8118 12.8058 22.1673 12.484C22.5229 12.1622 23.0007 12.0009 23.6007 12H36.0007C36.734 12 37.362 12.2613 37.8847 12.784C38.4073 13.3067 38.6682 13.9342 38.6673 14.6667ZM31.334 20H32.6673C32.8451 20 33.0007 19.9333 33.134 19.8C33.2673 19.6667 33.334 19.5111 33.334 19.3333V18C33.334 17.8222 33.2673 17.6667 33.134 17.5333C33.0007 17.4 32.8451 17.3333 32.6673 17.3333H31.334C31.1562 17.3333 31.0007 17.4 30.8673 17.5333C30.734 17.6667 30.6673 17.8222 30.6673 18V19.3333C30.6673 19.5111 30.734 19.6667 30.8673 19.8C31.0007 19.9333 31.1562 20 31.334 20ZM31.334 25.3333H32.6673C32.8451 25.3333 33.0007 25.2667 33.134 25.1333C33.2673 25 33.334 24.8444 33.334 24.6667V23.3333C33.334 23.1556 33.2673 23 33.134 22.8667C33.0007 22.7333 32.8451 22.6667 32.6673 22.6667H31.334C31.1562 22.6667 31.0007 22.7333 30.8673 22.8667C30.734 23 30.6673 23.1556 30.6673 23.3333V24.6667C30.6673 24.8444 30.734 25 30.8673 25.1333C31.0007 25.2667 31.1562 25.3333 31.334 25.3333ZM31.334 30.6667H32.6673C32.8451 30.6667 33.0007 30.6 33.134 30.4667C33.2673 30.3333 33.334 30.1778 33.334 30V28.6667C33.334 28.4889 33.2673 28.3333 33.134 28.2C33.0007 28.0667 32.8451 28 32.6673 28H31.334C31.1562 28 31.0007 28.0667 30.8673 28.2C30.734 28.3333 30.6673 28.4889 30.6673 28.6667V30C30.6673 30.1778 30.734 30.3333 30.8673 30.4667C31.0007 30.6 31.1562 30.6667 31.334 30.6667Z" fill="#008DD2"/>
</svg>
