<svg width="38" height="38" viewBox="0 0 38 38" fill="none" xmlns="http://www.w3.org/2000/svg">
<path d="M18.2077 33.2503C26.515 33.2503 33.2493 26.5159 33.2493 18.2087C33.2493 9.90138 26.515 3.16699 18.2077 3.16699C9.9004 3.16699 3.16602 9.90138 3.16602 18.2087C3.16602 26.5159 9.9004 33.2503 18.2077 33.2503Z" fill="#F4F6F9"/>
<path d="M33.725 34.8334C33.44 34.8334 33.155 34.7225 32.9492 34.5167L30.0042 31.5717C29.5767 31.1442 29.5767 30.4476 30.0042 30.0042C30.4317 29.5767 31.1284 29.5767 31.5717 30.0042L34.5167 32.9492C34.9442 33.3767 34.9442 34.0734 34.5167 34.5167C34.295 34.7225 34.01 34.8334 33.725 34.8334Z" fill="#F4F6F9"/>
</svg>
