<svg width="48" height="48" viewBox="0 0 48 48" fill="none" xmlns="http://www.w3.org/2000/svg">
<circle cx="24" cy="24" r="12" fill="#008DD2"/>
<path d="M25.8968 17.1602L25.5446 26.6973H22.4558L22.1036 17.1602H25.8968ZM24.0002 31.2491C23.4764 31.2491 23.0271 31.0663 22.6523 30.7005C22.282 30.3302 22.0991 29.8809 22.1036 29.3526C22.0991 28.8378 22.282 28.3975 22.6523 28.0317C23.0271 27.6659 23.4764 27.4831 24.0002 27.4831C24.4969 27.4831 24.9349 27.6659 25.3143 28.0317C25.6981 28.3975 25.8923 28.8378 25.8968 29.3526C25.8923 29.7048 25.7997 30.0254 25.6191 30.3144C25.443 30.5989 25.2127 30.8269 24.9282 30.9985C24.6437 31.1656 24.3344 31.2491 24.0002 31.2491Z" fill="white"/>
</svg>
