<svg width="32" height="32" viewBox="0 0 32 32" fill="none" xmlns="http://www.w3.org/2000/svg">
<path d="M21.3333 2.6665H10.6667C6.98667 2.6665 4 5.65317 4 9.33317V22.6665C4 26.3465 6.98667 29.3332 10.6667 29.3332H21.3333C25.0133 29.3332 28 26.3465 28 22.6665V9.33317C28 5.65317 25.0133 2.6665 21.3333 2.6665ZM11.8133 24.8398C11.56 25.0932 11.2267 25.2265 10.88 25.2265C10.52 25.2265 10.1867 25.0932 9.93333 24.8398C9.68 24.5865 9.53333 24.2532 9.53333 23.8932C9.53333 23.5465 9.68 23.1998 9.93333 22.9465C10.0533 22.8265 10.2 22.7332 10.36 22.6665C10.6933 22.5332 11.0533 22.5332 11.3867 22.6665C11.4667 22.6932 11.5467 22.7332 11.6133 22.7865C11.6933 22.8265 11.76 22.8932 11.8133 22.9465C12.0667 23.1998 12.2133 23.5465 12.2133 23.8932C12.2133 24.2532 12.0667 24.5865 11.8133 24.8398ZM9.53333 18.5598C9.53333 18.3865 9.57333 18.2132 9.64 18.0532C9.70667 17.8798 9.8 17.7465 9.93333 17.6132C10.24 17.3065 10.7067 17.1598 11.1333 17.2532C11.2133 17.2665 11.3067 17.2932 11.3867 17.3332C11.4667 17.3598 11.5467 17.3998 11.6133 17.4532C11.6933 17.4932 11.76 17.5598 11.8133 17.6132C11.9333 17.7465 12.04 17.8798 12.1067 18.0532C12.1733 18.2132 12.2 18.3865 12.2 18.5598C12.2 18.9198 12.0667 19.2532 11.8133 19.5065C11.56 19.7598 11.2267 19.8932 10.88 19.8932C10.6933 19.8932 10.52 19.8532 10.36 19.7865C10.2 19.7198 10.0533 19.6265 9.93333 19.5065C9.68 19.2532 9.53333 18.9198 9.53333 18.5598ZM17.1467 24.8398C17.0267 24.9598 16.88 25.0532 16.72 25.1198C16.56 25.1865 16.3867 25.2265 16.2 25.2265C15.8533 25.2265 15.52 25.0932 15.2667 24.8398C15.0133 24.5865 14.8667 24.2532 14.8667 23.8932C14.8667 23.7998 14.88 23.7198 14.8933 23.6265C14.92 23.5465 14.9467 23.4665 14.9733 23.3865C15.0133 23.3065 15.0533 23.2265 15.0933 23.1465C15.1467 23.0798 15.2 23.0132 15.2667 22.9465C15.3867 22.8265 15.5333 22.7332 15.6933 22.6665C16.1867 22.4665 16.7733 22.5732 17.1467 22.9465C17.4 23.1998 17.5333 23.5465 17.5333 23.8932C17.5333 24.2532 17.4 24.5865 17.1467 24.8398ZM17.1467 19.5065C16.8933 19.7598 16.56 19.8932 16.2 19.8932C15.8533 19.8932 15.52 19.7598 15.2667 19.5065C15.0133 19.2532 14.8667 18.9198 14.8667 18.5598C14.8667 18.2132 15.0133 17.8665 15.2667 17.6132C15.76 17.1198 16.6533 17.1198 17.1467 17.6132C17.2667 17.7465 17.3733 17.8798 17.44 18.0532C17.5067 18.2132 17.5333 18.3865 17.5333 18.5598C17.5333 18.9198 17.4 19.2532 17.1467 19.5065ZM12 13.9465C10.6267 13.9465 9.49333 12.8265 9.49333 11.4398V10.1065C9.49333 8.73317 10.6133 7.59984 12 7.59984H20C21.3733 7.59984 22.5067 8.71984 22.5067 10.1065V11.4398C22.5067 12.8132 21.3867 13.9465 20 13.9465H12ZM22.48 24.8398C22.2267 25.0932 21.8933 25.2265 21.5333 25.2265C21.36 25.2265 21.1867 25.1865 21.0267 25.1198C20.8667 25.0532 20.72 24.9598 20.6 24.8398C20.3467 24.5865 20.2133 24.2532 20.2133 23.8932C20.2133 23.5465 20.3467 23.1998 20.6 22.9465C20.96 22.5732 21.56 22.4665 22.0533 22.6665C22.2133 22.7332 22.36 22.8265 22.48 22.9465C22.7333 23.1998 22.8667 23.5465 22.8667 23.8932C22.8667 24.2532 22.7333 24.5865 22.48 24.8398ZM22.7733 19.0665C22.7067 19.2265 22.6133 19.3732 22.48 19.5065C22.2267 19.7598 21.8933 19.8932 21.5333 19.8932C21.1867 19.8932 20.8533 19.7598 20.6 19.5065C20.3467 19.2532 20.2 18.9198 20.2 18.5598C20.2 18.2132 20.3467 17.8665 20.6 17.6132C21.0933 17.1198 21.9867 17.1198 22.48 17.6132C22.7333 17.8665 22.88 18.2132 22.88 18.5598C22.88 18.7332 22.84 18.9065 22.7733 19.0665Z" fill="#4D4D4D"/>
</svg>
